<svg xmlns="http://www.w3.org/2000/svg" xmlns:xlink="http://www.w3.org/1999/xlink" version="1.1" id="fi_5968780" x="0px" y="0px" viewBox="0 0 512.6 512.6" style="enable-background:new 0 0 512.6 512.6;" xml:space="preserve" width="512" height="512">
<g>
	<path d="M309.75,256c0,30.56-24.77,55.33-55.33,55.33c-30.56,0-55.33-24.77-55.33-55.33s24.77-55.34,55.33-55.34   C284.98,200.66,309.75,225.44,309.75,256z"></path>
	<path d="M457.21,0H55.39C24.8,0,0,24.8,0,55.39v401.82c0,30.59,24.8,55.39,55.39,55.39h401.82c30.59,0,55.39-24.8,55.39-55.39   V55.39C512.6,24.8,487.8,0,457.21,0z M419.42,324.44c-0.8,17.67-3.61,29.74-7.71,40.29c-4.25,10.92-9.92,20.18-19.15,29.41   c-9.23,9.22-18.49,14.9-29.4,19.14c-10.56,4.11-22.63,6.91-40.3,7.72c-17.7,0.81-23.36,1-68.44,1c-45.08,0-50.74-0.19-68.44-1   c-17.67-0.81-29.74-3.61-40.3-7.72c-10.91-4.24-20.17-9.92-29.4-19.14c-9.23-9.23-14.9-18.49-19.15-29.41   c-4.1-10.55-6.9-22.62-7.71-40.29c-0.81-17.71-1-23.36-1-68.44c0-45.09,0.19-50.74,1-68.44c0.81-17.67,3.61-29.74,7.71-40.3   c4.25-10.91,9.92-20.17,19.15-29.4c9.23-9.23,18.49-14.91,29.4-19.15c10.56-4.1,22.63-6.91,40.3-7.71c17.7-0.81,23.36-1,68.44-1   c45.08,0,50.74,0.19,68.44,1c17.67,0.8,29.74,3.61,40.3,7.71c10.91,4.24,20.17,9.92,29.4,19.15c9.23,9.23,14.9,18.49,19.15,29.4   c4.1,10.56,6.91,22.63,7.71,40.3c0.81,17.7,1,23.35,1,68.44C420.42,301.08,420.23,306.73,419.42,324.44z M383.83,158.1   c-3.01-7.75-6.61-13.28-12.42-19.09c-5.81-5.81-11.34-9.41-19.09-12.42c-5.85-2.27-14.64-4.98-30.82-5.71   c-17.51-0.8-22.76-0.97-67.08-0.97c-44.32,0-49.57,0.17-67.08,0.97c-16.18,0.73-24.97,3.44-30.82,5.71   c-7.75,3.01-13.28,6.61-19.09,12.42c-5.81,5.81-9.41,11.34-12.42,19.09c-2.27,5.85-4.97,14.64-5.71,30.82   c-0.8,17.5-0.97,22.75-0.97,67.08c0,44.32,0.17,49.57,0.97,67.08c0.74,16.18,3.44,24.97,5.71,30.82   c3.01,7.75,6.61,13.28,12.42,19.09c5.81,5.81,11.34,9.4,19.09,12.41c5.85,2.28,14.64,4.98,30.82,5.72   c17.5,0.8,22.75,0.97,67.08,0.97c44.33,0,49.58-0.17,67.08-0.97c16.18-0.74,24.97-3.44,30.82-5.72c7.75-3.01,13.28-6.6,19.09-12.41   c5.81-5.81,9.41-11.34,12.42-19.09c2.27-5.85,4.97-14.64,5.71-30.82c0.8-17.51,0.97-22.76,0.97-67.08   c0-44.33-0.17-49.58-0.97-67.08C388.8,172.74,386.1,163.95,383.83,158.1z M254.42,341.24c-47.08,0-85.24-38.16-85.24-85.24   c0-47.08,38.16-85.25,85.24-85.25c47.08,0,85.24,38.17,85.24,85.25C339.66,303.08,301.5,341.24,254.42,341.24z M343.03,187.31   c-11,0-19.92-8.92-19.92-19.92s8.92-19.92,19.92-19.92s19.92,8.92,19.92,19.92S354.03,187.31,343.03,187.31z"></path>
</g>















</svg>