<svg xmlns="http://www.w3.org/2000/svg" xmlns:xlink="http://www.w3.org/1999/xlink" version="1.1" id="fi_5968791" x="0px" y="0px" viewBox="0 0 512.6 512.6" style="enable-background:new 0 0 512.6 512.6;" xml:space="preserve" width="512" height="512">
<g>
	<path d="M419.42,370.17h-3.21v-6.51h4.06c2.1,0,4.5,0.34,4.5,3.09C424.77,369.9,422.35,370.17,419.42,370.17z"></path>
	<path d="M419.22,355.29c-8.74,0.14-15.7,7.34-15.56,16.08c0.15,8.74,7.35,15.71,16.09,15.56v-0.01h0.41   c8.55-0.18,15.33-7.26,15.15-15.81v-0.26C435.16,362.11,427.96,355.14,419.22,355.29z M424.95,380.73l-5.27-8.29l-0.08-0.1h-3.4   v8.39h-2.76v-19.25h7.35c4.55,0,6.77,1.76,6.77,5.43c0,0.11,0.01,0.22,0,0.33c-0.02,2.71-1.75,4.91-5.33,4.91l5.68,8.58H424.95z"></path>
	<path d="M457.21,0H55.39C24.8,0,0,24.8,0,55.39v401.82c0,30.59,24.8,55.39,55.39,55.39h401.82c30.59,0,55.39-24.8,55.39-55.39   V55.39C512.6,24.8,487.8,0,457.21,0z M389.63,368.03c-0.14,10.68-8.92,19.23-19.6,19.09H144.5c-10.66,0.12-19.4-8.43-19.53-19.09   V141.57c0.13-10.66,8.87-19.2,19.53-19.08h225.53v-0.02c10.68-0.14,19.45,8.4,19.6,19.08V368.03z M420.1,389   c-9.97,0.09-18.13-7.91-18.22-17.88c-0.1-9.96,7.9-18.12,17.87-18.22h0.35c9.83,0.1,17.78,8.05,17.87,17.88   C438.07,380.74,430.06,388.9,420.1,389z M303.42,218.54c-15.2-0.56-29.47,7.28-37.15,20.4h-0.52v-17.26H228.1v126.29h39.22V285.5   c0-16.48,3.12-32.43,23.55-32.43c20.13,0,20.39,18.85,20.39,33.49v61.41h39.22l0.01-69.27   C350.49,244.68,343.16,218.54,303.42,218.54z M164.21,347.97h39.25V221.68h-39.25V347.97z M183.85,158.91   c-12.57,0-22.76,10.19-22.76,22.76c0.01,12.57,10.2,22.75,22.76,22.75c12.57,0,22.76-10.19,22.76-22.76   C206.6,169.09,196.41,158.9,183.85,158.91z"></path>
</g>















</svg>