<svg width="603" height="68" viewBox="0 0 603 68" fill="none" xmlns="http://www.w3.org/2000/svg">
<path d="M25.1154 6.20224V66.004H29.7788V6.20224H52.8217V1.996H2.07251V6.20224H25.1154Z" fill="#4B4F5A" stroke="#4B4F5A" stroke-width="2.667" stroke-miterlimit="2"/>
<path d="M84.4914 1.996H79.828L50.3843 66.004H55.4135L82.114 7.11664L108.906 66.004H113.935L84.4914 1.996Z" fill="#525660" stroke="#525660" stroke-width="2.667" stroke-miterlimit="2"/>
<path d="M141.556 43.967L167.342 1.996H162.495L139.361 39.6693L116.227 1.996H111.106L136.892 43.967V66.004H141.556V43.967Z" fill="#585C67" stroke="#585C67" stroke-width="2.667" stroke-miterlimit="2"/>
<path d="M177.347 1.996V66.004H218.861V61.7978H182.011V1.996H177.347Z" fill="#5F636D" stroke="#5F636D" stroke-width="2.667" stroke-miterlimit="2"/>
<path d="M239.825 62.255C244.854 65.0896 250.524 66.4612 256.833 66.4612C263.051 66.4612 268.72 65.0896 273.841 62.255C278.87 59.5118 282.802 55.5798 285.728 50.6421C288.654 45.7043 290.117 40.2179 290.117 34C290.117 27.8735 288.654 22.2957 285.728 17.3579C282.802 12.4201 278.87 8.57966 273.841 5.74502C268.72 3.00182 263.051 1.53879 256.833 1.53879C250.524 1.53879 244.854 3.00183 239.825 5.83647C234.704 8.67111 230.773 12.5116 227.846 17.4493C224.92 22.3871 223.549 27.9649 223.549 34C223.549 40.1265 224.92 45.6129 227.846 50.5506C230.773 55.4884 234.704 59.4203 239.825 62.255ZM271.372 58.5059C266.983 60.9748 262.136 62.1635 256.833 62.1635C251.438 62.1635 246.592 60.9748 242.203 58.5059C237.813 56.1285 234.43 52.7452 231.961 48.4475C229.401 44.1498 228.212 39.3035 228.212 34C228.212 28.6965 229.401 23.9416 231.961 19.6439C234.43 15.3462 237.813 11.9629 242.203 9.49407C246.592 7.11663 251.438 5.83647 256.833 5.83647C262.136 5.83647 266.983 7.11663 271.372 9.49407C275.67 11.9629 279.053 15.3462 281.613 19.6439C284.082 23.9416 285.362 28.6965 285.362 34C285.362 39.3035 284.082 44.1498 281.613 48.4475C279.053 52.7452 275.67 56.1285 271.372 58.5059Z" fill="#656A74" stroke="#656A74" stroke-width="2.667" stroke-miterlimit="2"/>
<path d="M340.033 43.6012C344.788 42.2296 348.537 39.8522 351.098 36.3774C353.658 32.9027 355.029 28.6965 355.029 23.5758C355.029 16.9007 352.744 11.5972 348.172 7.75673C343.6 3.91625 337.29 1.996 329.243 1.996H306.292V6.20224H329.243C336.01 6.20224 341.222 7.75673 344.88 10.7742C348.446 13.7918 350.275 18.0894 350.275 23.5758C350.275 29.1537 348.446 33.4514 344.88 36.4689C341.222 39.4864 336.01 40.9494 329.243 40.9494H306.292V66.004H310.955V45.0642H329.243C331.072 45.0642 333.175 44.9728 335.461 44.607L350.732 66.004H356.035L340.033 43.6012Z" fill="#6C707A" stroke="#6C707A" stroke-width="2.667" stroke-miterlimit="2"/>
<path d="M446.882 1.996H442.036L416.159 59.969L390.281 1.996H385.16L413.69 66.004H418.353L446.882 1.996Z" fill="#727781" stroke="#727781" stroke-width="2.667" stroke-miterlimit="2"/>
<path d="M457.204 1.996V66.004H461.867V1.996H457.204Z" fill="#797E87" stroke="#797E87" stroke-width="2.667" stroke-miterlimit="2"/>
<path d="M494.23 62.255C499.259 65.0896 504.928 66.4612 511.238 66.4612C515.81 66.4612 520.016 65.7297 523.948 64.1752C527.88 62.7122 531.263 60.4262 534.006 57.5001L531.08 54.4826C525.868 59.6032 519.284 62.1635 511.42 62.1635C506.026 62.1635 501.179 60.9748 496.79 58.5059C492.401 56.1285 488.926 52.7452 486.457 48.4475C483.897 44.1498 482.708 39.3035 482.708 34C482.708 28.6965 483.897 23.9416 486.457 19.6439C488.926 15.3462 492.401 11.9629 496.79 9.49407C501.179 7.11663 506.026 5.83647 511.42 5.83647C519.376 5.83647 525.959 8.39678 531.08 13.426L534.006 10.4085C531.263 7.48239 527.88 5.28783 524.039 3.82479C520.107 2.36175 515.81 1.53879 511.238 1.53879C504.928 1.53879 499.259 3.00182 494.23 5.74502C489.201 8.57966 485.269 12.4201 482.343 17.3579C479.416 22.2957 478.045 27.8735 478.045 34C478.045 40.2179 479.416 45.7043 482.343 50.6421C485.269 55.5798 489.201 59.5118 494.23 62.255Z" fill="#7F848E" stroke="#7F848E" stroke-width="2.667" stroke-miterlimit="2"/>
<path d="M568.735 34.4572L596.258 66.004H601.928L571.844 31.0739L600.007 1.996H594.338L554.379 43.144V1.996H549.715V66.004H554.379V49.179L568.735 34.4572Z" fill="#868B94" stroke="#868B94" stroke-width="2.667" stroke-miterlimit="2"/>
</svg>
